<?xml version="1.0" encoding="UTF-8"?>
<svg id="Layer_1" xmlns="http://www.w3.org/2000/svg" version="1.1" xmlns:xlink="http://www.w3.org/1999/xlink" viewBox="0 0 138 138">
  <!-- Generator: Adobe Illustrator 29.4.0, SVG Export Plug-In . SVG Version: 2.1.0 Build 152)  -->
  <defs>
    <style>
      .st0, .st1 {
        fill: #fff;
      }

      .st1, .st2 {
        fill-opacity: .2;
      }

      .st3 {
        fill: #090719;
      }

      .st2 {
        fill: url(#linear-gradient2);
      }

      .st4 {
        fill: url(#linear-gradient);
      }

      .st4, .st5 {
        fill-opacity: .6;
      }

      .st6 {
        fill: #1c1a29;
      }

      .st5 {
        fill: url(#linear-gradient1);
      }
    </style>
    <linearGradient id="linear-gradient" x1="-70.8" y1="43" x2="6.2" y2="-34" gradientTransform="translate(101.1 63.4) scale(1 -1)" gradientUnits="userSpaceOnUse">
      <stop offset=".3" stop-color="#fff" stop-opacity="0"/>
      <stop offset=".5" stop-color="#fff"/>
      <stop offset=".6" stop-color="#fff" stop-opacity="0"/>
    </linearGradient>
    <linearGradient id="linear-gradient1" x1="6.2" y1="43" x2="-70.8" y2="-34" gradientTransform="translate(101.1 63.4) scale(1 -1)" gradientUnits="userSpaceOnUse">
      <stop offset=".3" stop-color="#fff" stop-opacity="0"/>
      <stop offset=".5" stop-color="#fff"/>
      <stop offset=".6" stop-color="#fff" stop-opacity="0"/>
    </linearGradient>
    <linearGradient id="linear-gradient2" x1="5.5" y1="42.7" x2="-48.1" y2="-13.8" gradientTransform="translate(100.7 63.4) scale(1 -1)" gradientUnits="userSpaceOnUse">
      <stop offset="0" stop-color="#fff"/>
      <stop offset="1" stop-color="#fff" stop-opacity="0"/>
    </linearGradient>
  </defs>
<g filter="url(#filter0_d_514_22473)">
  <rect class="st3" x="30.3" y="20.3" width="77" height="77" rx="24" ry="24" transform="translate(-18 33.1) rotate(-24)"/>
  <rect class="st1" x="30.3" y="20.3" width="77" height="77" rx="24" ry="24" transform="translate(-18 33.1) rotate(-24)"/>
  <rect class="st4" x="30.3" y="20.3" width="77" height="77" rx="24" ry="24" transform="translate(-18 33.1) rotate(-24)"/>
  <rect class="st5" x="30.3" y="20.3" width="77" height="77" rx="24" ry="24" transform="translate(-18 33.1) rotate(-24)"/>
  <rect class="st6" x="30.7" y="22.2" width="77" height="75.1" rx="24" ry="24" transform="translate(-18.3 33.3) rotate(-24)"/>
  <rect class="st2" x="30.7" y="22.2" width="77" height="75.1" rx="24" ry="24" transform="translate(-18.3 33.3) rotate(-24)"/>
  <path class="st0" d="M67.7,68.6c-.8.4-1.6.5-2.2.5-.7,0-1.3-.2-1.8-.5l.3.8c0,.1,0,.3,0,.4,0,.1-.1.2-.3.3l-1.7.7c-.1,0-.3,0-.4,0-.1,0-.2-.2-.3-.3l-6.3-14c0-.1,0-.3,0-.4,0-.1.2-.2.3-.3l1.8-.8c.2,0,.3,0,.4,0,.1,0,.2.2.3.3l2.1,4.7c.2-.6.5-1.1.9-1.6.4-.5,1-.9,1.8-1.3.7-.3,1.5-.5,2.1-.5.7,0,1.3.2,1.9.5.6.3,1.1.7,1.6,1.2.5.5.9,1.1,1.2,1.8.1.2.2.5.3.7,0,.2.2.4.3.7.3.7.5,1.5.6,2.2,0,.7,0,1.4-.1,2-.2.6-.5,1.2-.9,1.7-.4.5-1,.9-1.8,1.2ZM66,66.7c.6-.3,1-.6,1.3-1,.2-.4.3-.9.3-1.4,0-.5-.1-1-.3-1.5-.2-.4-.3-.9-.6-1.3-.3-.5-.6-.9-.9-1.3-.3-.4-.7-.6-1.2-.7-.5-.1-1,0-1.6.2-.6.3-1,.6-1.2,1-.2.4-.4.9-.4,1.3,0,.5,0,.9.2,1.3,0,.3.2.5.3.8.1.3.3.5.4.8.2.4.5.8.9,1.2.4.3.8.6,1.2.7.5.1,1,0,1.6-.2ZM78.8,63.7c-1.6.7-3,.8-4.3.3-1.3-.5-2.4-1.6-3.2-3.2,0-.1-.2-.3-.3-.5-.1-.2-.2-.4-.2-.5-.4-1.1-.6-2.1-.5-3.1,0-1,.4-1.8,1-2.6.6-.8,1.4-1.4,2.4-1.8,1.1-.5,2.2-.7,3.2-.6,1,.1,1.9.5,2.6,1.2.8.7,1.4,1.5,1.9,2.6l.2.4c0,.1,0,.3,0,.4,0,.1-.2.2-.3.3l-7,3.1s0,0,0,0c0,0,0,0,0,.1.2.5.5.9.9,1.3.4.3.8.5,1.2.6.5,0,.9,0,1.4-.2.4-.2.7-.4.9-.6.2-.2.4-.5.5-.7.1-.2.2-.4.2-.5,0-.2.1-.4.2-.4,0,0,.2-.2.3-.2l1.8-.8c.1,0,.3,0,.4,0,.1,0,.2.1.3.3,0,.2,0,.6,0,1,0,.4-.2.9-.5,1.4-.3.5-.7,1-1.2,1.5-.5.5-1.2.9-2,1.2ZM73.5,58.1l4.7-2.1h0c-.2-.6-.6-1.1-.9-1.4-.4-.3-.8-.5-1.2-.6-.5,0-.9,0-1.4.2-.5.2-.9.5-1.1.9-.2.4-.4.8-.4,1.3,0,.5.1,1,.4,1.6h0Z"/>
</g>
<defs>
<filter id="filter0_d_514_22473" x="0.058321" y="0.30738" width="137.545" height="137.545" filterUnits="userSpaceOnUse" color-interpolation-filters="sRGB">
<feFlood flood-opacity="0" result="BackgroundImageFix"/>
<feColorMatrix in="SourceAlpha" type="matrix" values="0 0 0 0 0 0 0 0 0 0 0 0 0 0 0 0 0 0 127 0" result="hardAlpha"/>
<feOffset dy="10.2489"/>
<feGaussianBlur stdDeviation="12.8112"/>
<feColorMatrix type="matrix" values="0 0 0 0 0 0 0 0 0 0 0 0 0 0 0 0 0 0 0.6 0"/>
<feBlend mode="normal" in2="BackgroundImageFix" result="effect1_dropShadow_514_22473"/>
<feBlend mode="normal" in="SourceGraphic" in2="effect1_dropShadow_514_22473" result="shape"/>
</filter>
<linearGradient id="paint0_linear_514_22473" x1="18" y1="39.3187" x2="94.9999" y2="116.319" gradientUnits="userSpaceOnUse">
<stop offset="0.333333" stop-color="white" stop-opacity="0"/>
<stop offset="0.484375" stop-color="white"/>
<stop offset="0.625" stop-color="white" stop-opacity="0"/>
</linearGradient>
<linearGradient id="paint1_linear_514_22473" x1="94.9999" y1="39.3187" x2="18" y2="116.319" gradientUnits="userSpaceOnUse">
<stop offset="0.322917" stop-color="white" stop-opacity="0"/>
<stop offset="0.46875" stop-color="white"/>
<stop offset="0.625" stop-color="white" stop-opacity="0"/>
</linearGradient>
<linearGradient id="paint2_linear_514_22473" x1="95.7831" y1="41.0775" x2="42.1097" y2="97.5396" gradientUnits="userSpaceOnUse">
<stop stop-color="white"/>
<stop offset="1" stop-color="white" stop-opacity="0"/>
</linearGradient>
</defs>
</svg>