<?xml version="1.0" encoding="UTF-8"?>
<svg id="Layer_1" xmlns="http://www.w3.org/2000/svg" version="1.1" xmlns:xlink="http://www.w3.org/1999/xlink" viewBox="0 0 138 138">
  <!-- Generator: Adobe Illustrator 29.4.0, SVG Export Plug-In . SVG Version: 2.1.0 Build 152)  -->
  <defs>
    <style>
      .st0, .st1 {
        fill: #fff;
      }

      .st1, .st2 {
        fill-opacity: .2;
      }

      .st3 {
        fill: #090719;
      }

      .st2 {
        fill: url(#linear-gradient2);
      }

      .st4 {
        fill: url(#linear-gradient);
      }

      .st4, .st5 {
        fill-opacity: .6;
      }

      .st6 {
        fill: #1c1a29;
      }

      .st5 {
        fill: url(#linear-gradient1);
      }
    </style>
    <linearGradient id="linear-gradient" x1="-70.8" y1="43" x2="6.2" y2="-34" gradientTransform="translate(101.1 63.4) scale(1 -1)" gradientUnits="userSpaceOnUse">
      <stop offset=".3" stop-color="#fff" stop-opacity="0"/>
      <stop offset=".5" stop-color="#fff"/>
      <stop offset=".6" stop-color="#fff" stop-opacity="0"/>
    </linearGradient>
    <linearGradient id="linear-gradient1" x1="6.2" y1="43" x2="-70.8" y2="-34" gradientTransform="translate(101.1 63.4) scale(1 -1)" gradientUnits="userSpaceOnUse">
      <stop offset=".3" stop-color="#fff" stop-opacity="0"/>
      <stop offset=".5" stop-color="#fff"/>
      <stop offset=".6" stop-color="#fff" stop-opacity="0"/>
    </linearGradient>
    <linearGradient id="linear-gradient2" x1="5.5" y1="42.7" x2="-48.1" y2="-13.8" gradientTransform="translate(100.7 63.4) scale(1 -1)" gradientUnits="userSpaceOnUse">
      <stop offset="0" stop-color="#fff"/>
      <stop offset="1" stop-color="#fff" stop-opacity="0"/>
    </linearGradient>
  </defs>
  <g filter="url(#filter0_d_514_22483)">
    <rect class="st3" x="30.3" y="20.3" width="77" height="77" rx="24" ry="24" transform="translate(-18 33.1) rotate(-24)"/>
    <rect class="st1" x="30.3" y="20.3" width="77" height="77" rx="24" ry="24" transform="translate(-18 33.1) rotate(-24)"/>
    <rect class="st4" x="30.3" y="20.3" width="77" height="77" rx="24" ry="24" transform="translate(-18 33.1) rotate(-24)"/>
    <rect class="st5" x="30.3" y="20.3" width="77" height="77" rx="24" ry="24" transform="translate(-18 33.1) rotate(-24)"/>
    <rect class="st6" x="30.7" y="22.2" width="77" height="75.1" rx="24" ry="24" transform="translate(-18.3 33.3) rotate(-24)"/>
    <rect class="st2" x="30.7" y="22.2" width="77" height="75.1" rx="24" ry="24" transform="translate(-18.3 33.3) rotate(-24)"/>
  </g>
<defs>
<filter id="filter0_d_514_22483" x="0.367443" y="0.826984" width="215.545" height="215.546" filterUnits="userSpaceOnUse" color-interpolation-filters="sRGB">
<feFlood flood-opacity="0" result="BackgroundImageFix"/>
<feColorMatrix in="SourceAlpha" type="matrix" values="0 0 0 0 0 0 0 0 0 0 0 0 0 0 0 0 0 0 127 0" result="hardAlpha"/>
<feOffset dy="10.4597"/>
<feGaussianBlur stdDeviation="13.0746"/>
<feColorMatrix type="matrix" values="0 0 0 0 0 0 0 0 0 0 0 0 0 0 0 0 0 0 0.6 0"/>
<feBlend mode="normal" in2="BackgroundImageFix" result="effect1_dropShadow_514_22483"/>
<feBlend mode="normal" in="SourceGraphic" in2="effect1_dropShadow_514_22483" result="shape"/>
</filter>
<linearGradient id="paint0_linear_514_22483" x1="49.6025" y1="8" x2="201.602" y2="159.999" gradientUnits="userSpaceOnUse">
<stop offset="0.333333" stop-color="white" stop-opacity="0"/>
<stop offset="0.484375" stop-color="white"/>
<stop offset="0.625" stop-color="white" stop-opacity="0"/>
</linearGradient>
<linearGradient id="paint1_linear_514_22483" x1="201.602" y1="7.99999" x2="49.6025" y2="159.999" gradientUnits="userSpaceOnUse">
<stop offset="0.322917" stop-color="white" stop-opacity="0"/>
<stop offset="0.46875" stop-color="white"/>
<stop offset="0.625" stop-color="white" stop-opacity="0"/>
</linearGradient>
<linearGradient id="paint2_linear_514_22483" x1="200.812" y1="11.7173" x2="94.8599" y2="123.174" gradientUnits="userSpaceOnUse">
<stop stop-color="white"/>
<stop offset="1" stop-color="white" stop-opacity="0"/>
</linearGradient>
</defs>
  <path class="st0" d="M71.4,67.7c-.1,0-.3,0-.4,0-.1,0-.2-.2-.3-.3l-6.2-13.8c0-.1,0-.3,0-.4,0-.1.2-.2.3-.3l2-.9c.2,0,.3,0,.4,0,.1,0,.2.2.3.3l6.2,13.8c0,.1,0,.3,0,.4,0,.1-.1.2-.3.3l-2,.9Z"/>
</svg>